<svg xmlns="http://www.w3.org/2000/svg" viewBox="0 0 100 100"><g stroke="#000" stroke-width="2.13" fill="none" stroke-linecap="round"><line x1="80.50" y1="50.00" x2="91.00" y2="50.00"></line><line x1="79.01" y1="59.43" x2="88.99" y2="62.67"></line><line x1="74.68" y1="67.93" x2="83.17" y2="74.10"></line><line x1="67.93" y1="74.68" x2="74.10" y2="83.17"></line><line x1="59.43" y1="79.01" x2="62.67" y2="88.99"></line><line x1="50.00" y1="80.50" x2="50.00" y2="91.00"></line><line x1="40.57" y1="79.01" x2="37.33" y2="88.99"></line><line x1="32.07" y1="74.68" x2="25.90" y2="83.17"></line><line x1="25.32" y1="67.93" x2="16.83" y2="74.10"></line><line x1="20.99" y1="59.43" x2="11.01" y2="62.67"></line><line x1="19.50" y1="50.00" x2="9.00" y2="50.00"></line><line x1="20.99" y1="40.57" x2="11.01" y2="37.33"></line><line x1="25.32" y1="32.07" x2="16.83" y2="25.90"></line><line x1="32.07" y1="25.32" x2="25.90" y2="16.83"></line><line x1="40.57" y1="20.99" x2="37.33" y2="11.01"></line><line x1="50.00" y1="19.50" x2="50.00" y2="9.00"></line><line x1="59.43" y1="20.99" x2="62.67" y2="11.01"></line><line x1="67.93" y1="25.32" x2="74.10" y2="16.83"></line><line x1="74.68" y1="32.07" x2="83.17" y2="25.90"></line><line x1="79.01" y1="40.57" x2="88.99" y2="37.33"></line></g><circle cx="50" cy="50" r="30" stroke="#000" stroke-width="2.86" fill="none"></circle><circle cx="50" cy="50" r="27" stroke="#000" stroke-width="1.30" fill="none" opacity="0.5"></circle><g stroke="#000" stroke-width="2.39" fill="none" stroke-linecap="round" clip-path="url(#cdcxa9)"><path d="M37,24 Q33,50 37,76"></path><path d="M50,21 L50,79"></path><path d="M63,24 Q67,50 63,76"></path><path d="M24,37 Q50,33 76,37"></path><path d="M21,50 L79,50"></path><path d="M24,63 Q50,67 76,63"></path></g><circle cx="50" cy="50" r="3.2" fill="#000"></circle><defs><clipPath id="cdcxa9"><circle cx="50" cy="50" r="27.5"></circle></clipPath></defs></svg>