<svg xmlns="http://www.w3.org/2000/svg" viewBox="0 0 100 100"><rect width="100" height="100" fill="#261B11"></rect><g transform="translate(50,50) scale(0.74) translate(-50,-50)"><g stroke="#C8A24B" stroke-width="1.64" fill="none" stroke-linecap="round"><line x1="80.50" y1="50.00" x2="91.00" y2="50.00"></line><line x1="79.74" y1="56.79" x2="89.97" y2="59.12"></line><line x1="77.48" y1="63.23" x2="86.94" y2="67.79"></line><line x1="73.85" y1="69.02" x2="82.06" y2="75.56"></line><line x1="69.02" y1="73.85" x2="75.56" y2="82.06"></line><line x1="63.23" y1="77.48" x2="67.79" y2="86.94"></line><line x1="56.79" y1="79.74" x2="59.12" y2="89.97"></line><line x1="50.00" y1="80.50" x2="50.00" y2="91.00"></line><line x1="43.21" y1="79.74" x2="40.88" y2="89.97"></line><line x1="36.77" y1="77.48" x2="32.21" y2="86.94"></line><line x1="30.98" y1="73.85" x2="24.44" y2="82.06"></line><line x1="26.15" y1="69.02" x2="17.94" y2="75.56"></line><line x1="22.52" y1="63.23" x2="13.06" y2="67.79"></line><line x1="20.26" y1="56.79" x2="10.03" y2="59.12"></line><line x1="19.50" y1="50.00" x2="9.00" y2="50.00"></line><line x1="20.26" y1="43.21" x2="10.03" y2="40.88"></line><line x1="22.52" y1="36.77" x2="13.06" y2="32.21"></line><line x1="26.15" y1="30.98" x2="17.94" y2="24.44"></line><line x1="30.98" y1="26.15" x2="24.44" y2="17.94"></line><line x1="36.77" y1="22.52" x2="32.21" y2="13.06"></line><line x1="43.21" y1="20.26" x2="40.88" y2="10.03"></line><line x1="50.00" y1="19.50" x2="50.00" y2="9.00"></line><line x1="56.79" y1="20.26" x2="59.12" y2="10.03"></line><line x1="63.23" y1="22.52" x2="67.79" y2="13.06"></line><line x1="69.02" y1="26.15" x2="75.56" y2="17.94"></line><line x1="73.85" y1="30.98" x2="82.06" y2="24.44"></line><line x1="77.48" y1="36.77" x2="86.94" y2="32.21"></line><line x1="79.74" y1="43.21" x2="89.97" y2="40.88"></line></g><circle cx="50" cy="50" r="30" stroke="#E9D9BE" stroke-width="2.20" fill="none"></circle><circle cx="50" cy="50" r="27" stroke="#E9D9BE" stroke-width="1.00" fill="none" opacity="0.5"></circle><g stroke="#C8A24B" stroke-width="1.84" fill="none" stroke-linecap="round" clip-path="url(#chcvac)"><path d="M37,24 Q33,50 37,76"></path><path d="M50,21 L50,79"></path><path d="M63,24 Q67,50 63,76"></path><path d="M24,37 Q50,33 76,37"></path><path d="M21,50 L79,50"></path><path d="M24,63 Q50,67 76,63"></path></g><circle cx="50" cy="50" r="3.2" fill="#C8A24B"></circle><defs><clipPath id="chcvac"><circle cx="50" cy="50" r="27.5"></circle></clipPath></defs></g></svg>